<svg width="149" height="56" viewBox="0 0 149 56" fill="none" xmlns="http://www.w3.org/2000/svg">
    <path d="M25.2625 3.64677C28.2895 1.89914 29.803 1.02532 31.4182 0.708434C32.6755 0.461772 33.9687 0.461772 35.2259 0.708434C36.8411 1.02532 38.3546 1.89914 41.3816 3.64677L50.4889 8.90489C53.5159 10.6525 55.0294 11.5263 56.1114 12.7667C56.9537 13.7322 57.6003 14.8521 58.0153 16.0642C58.5484 17.6215 58.5484 19.3691 58.5484 22.8644V33.3806C58.5484 36.8759 58.5484 38.6235 58.0153 40.1808C57.6003 41.3929 56.9537 42.5128 56.1114 43.4783C55.0294 44.7187 53.5159 45.5925 50.4889 47.3401L41.3816 52.5982C38.3546 54.3459 36.8411 55.2197 35.2259 55.5366C33.9687 55.7832 32.6755 55.7832 31.4182 55.5366C29.803 55.2197 28.2895 54.3459 25.2625 52.5982L16.1552 47.3401C13.1282 45.5925 11.6147 44.7187 10.5327 43.4783C9.69047 42.5128 9.04387 41.3929 8.62886 40.1808C8.0957 38.6235 8.0957 36.8759 8.0957 33.3806V22.8644C8.0957 19.3691 8.0957 17.6215 8.62886 16.0642C9.04387 14.8521 9.69047 13.7322 10.5327 12.7667C11.6147 11.5263 13.1282 10.6525 16.1552 8.90489L25.2625 3.64677Z" fill="#E9F2EB"/>
    <path d="M56.429 22.8642C56.429 19.2188 56.4025 17.8947 56.0107 16.7505C55.6847 15.7982 55.1766 14.9182 54.515 14.1597C53.7198 13.2483 52.5867 12.5631 49.4293 10.7403L40.3221 5.48231C37.165 3.65955 36.005 3.02089 34.8182 2.78798C33.8304 2.59417 32.8135 2.59417 31.8257 2.78798C30.6389 3.02091 29.4788 3.65963 26.3219 5.48231L17.2146 10.7403C14.0577 12.5629 12.925 13.2484 12.1299 14.1597C11.4682 14.9182 10.9593 15.7982 10.6332 16.7505C10.2414 17.8947 10.215 19.2188 10.215 22.8642V33.3811C10.215 37.0267 10.2414 38.3506 10.6332 39.4949C10.9593 40.4472 11.4682 41.3271 12.1299 42.0856C12.925 42.997 14.0577 43.6824 17.2146 45.5051L26.3219 50.763C29.4788 52.5857 30.639 53.2244 31.8257 53.4574C32.8135 53.6512 33.8304 53.6512 34.8182 53.4574C36.005 53.2245 37.165 52.5858 40.3221 50.763L49.4293 45.5051C52.5866 43.6822 53.7199 42.9971 54.515 42.0856C55.1766 41.3271 55.6847 40.4472 56.0107 39.4949C56.4025 38.3506 56.429 37.0267 56.429 33.3811V22.8642ZM58.5482 33.3811L58.5405 35.6988C58.5155 37.738 58.4147 39.0134 58.0148 40.1813L57.8492 40.6315C57.4359 41.671 56.8483 42.634 56.1114 43.4788L55.9033 43.7073C54.8344 44.8317 53.3263 45.7023 50.4885 47.3407L41.3812 52.5986L39.3694 53.7507C37.5913 54.7484 36.4371 55.2993 35.2258 55.5369L34.7534 55.6173C33.8044 55.7561 32.8405 55.756 31.8915 55.6173L31.4181 55.5369C30.2068 55.2993 29.0527 54.7485 27.2745 53.7507L25.2627 52.5986L16.1554 47.3407C13.3176 45.7022 11.8096 44.8317 10.7407 43.7073L10.5325 43.4788C9.79566 42.6341 9.20896 41.6709 8.79567 40.6315L8.62915 40.1813C8.22927 39.0134 8.12941 37.738 8.10442 35.6988L8.0957 33.3811V22.8642C8.0957 19.5878 8.09599 17.8472 8.53524 16.3593L8.62915 16.064C9.04416 14.8521 9.69038 13.7319 10.5325 12.7666C11.344 11.8364 12.3982 11.1123 14.1514 10.0713L16.1554 8.90467L25.2627 3.64672C28.2895 1.89919 29.803 1.0253 31.4181 0.708422C32.6753 0.461768 33.9686 0.461784 35.2258 0.708422C36.8409 1.0253 38.3545 1.89923 41.3812 3.64672L50.4885 8.90467C53.5153 10.6522 55.0294 11.5263 56.1114 12.7666C56.9535 13.7319 57.5998 14.8521 58.0148 16.064C58.5479 17.6212 58.5482 19.3692 58.5482 22.8642V33.3811Z" fill="#D4E9DA"/>
    <path d="M26.9266 10.5947C29.3323 9.20571 30.5352 8.51123 31.8189 8.25937C32.8181 8.06334 33.8459 8.06334 34.8451 8.25937C36.1288 8.51123 37.3317 9.20571 39.7375 10.5947L45.3093 13.8116C47.715 15.2005 48.9179 15.895 49.7779 16.8808C50.4473 17.6481 50.9612 18.5382 51.291 19.5016C51.7147 20.7392 51.7147 22.1282 51.7147 24.9061V31.3399C51.7147 34.1178 51.7147 35.5068 51.291 36.7445C50.9612 37.7078 50.4473 38.5979 49.7779 39.3652C48.9179 40.351 47.715 41.0455 45.3093 42.4345L39.7375 45.6514C37.3317 47.0403 36.1288 47.7348 34.8451 47.9867C33.8459 48.1827 32.8181 48.1827 31.8189 47.9867C30.5352 47.7348 29.3323 47.0403 26.9266 45.6514L21.3547 42.4345C18.949 41.0455 17.7461 40.351 16.8861 39.3652C16.2168 38.5979 15.7029 37.7078 15.373 36.7445C14.9493 35.5068 14.9493 34.1178 14.9493 31.3399V24.9061C14.9493 22.1282 14.9493 20.7392 15.373 19.5016C15.7029 18.5382 16.2168 17.6481 16.8861 16.8808C17.7461 15.895 18.949 15.2005 21.3547 13.8116L26.9266 10.5947Z" fill="#85C096"/>
    <path d="M40.8104 36.6348L36.6346 42.0957L35.1367 42.3023L36.8068 47.1489C36.8068 47.1489 38.5586 45.057 39.8972 43.387C41.2358 41.717 43.7409 38.3338 43.7409 38.3338L42.6558 37.1093C41.8595 37.1093 40.8104 36.6348 40.8104 36.6348Z" fill="#6C5852"/>
    <path d="M20.9238 37.9384C22.6599 36.8749 22.6445 37.2434 24.3508 36.1677C24.3508 36.1677 31.4235 40.3999 31.9571 40.8526C32.4784 41.2932 33.0928 34.5756 33.0928 34.5756C33.0928 34.5756 34.269 34.7575 35.3684 34.5837C36.8153 34.3533 37.8015 33.8926 37.8015 33.8926C37.8015 33.8926 37.0983 38.0274 36.8234 39.5956C36.6496 40.602 36.589 43.3989 36.589 43.3989L32.822 46.5354L29.9563 44.6115C29.9563 44.6115 29.9483 43.8557 29.5239 43.3424C28.2062 41.7499 20.9238 37.9384 20.9238 37.9384Z" fill="#6C5852"/>
    <path d="M34.18 42.3369C33.0079 42.4235 29.9442 44.2139 29.9442 44.2139C29.9442 44.2139 30.1018 47.2546 29.9846 48.9716C29.8674 50.6887 29.0469 53.4926 29.8027 54.2028C30.4575 54.8162 35.9624 54.9329 36.7829 54.2194C37.6075 53.5059 36.8072 50.5586 36.8072 48.6482C36.8072 46.7378 36.5728 43.2104 36.5728 43.2104C36.5728 43.2104 35.5138 42.2402 34.18 42.3369Z" fill="#816057"/>
    <path d="M29.1483 13.6212C30.4829 12.8507 31.1502 12.4654 31.8624 12.3257C32.4167 12.217 32.9869 12.217 33.5412 12.3257C34.2534 12.4654 34.9207 12.8507 36.2553 13.6212L39.354 15.4103C40.6887 16.1808 41.356 16.5661 41.833 17.113C42.2044 17.5387 42.4895 18.0325 42.6725 18.5669C42.9075 19.2535 42.9075 20.024 42.9075 21.5651V25.1432C42.9075 26.6843 42.9075 27.4549 42.6725 28.1415C42.4895 28.6759 42.2044 29.1697 41.833 29.5954C41.356 30.1423 40.6887 30.5275 39.354 31.2981L36.2553 33.0871C34.9207 33.8577 34.2534 34.2429 33.5412 34.3827C32.9869 34.4914 32.4167 34.4914 31.8624 34.3827C31.1502 34.2429 30.4829 33.8577 29.1483 33.0871L26.0496 31.2981C24.715 30.5275 24.0477 30.1423 23.5706 29.5954C23.1992 29.1697 22.9141 28.6759 22.7312 28.1415C22.4961 27.4549 22.4961 26.6843 22.4961 25.1432V21.5651C22.4961 20.024 22.4961 19.2535 22.7312 18.5669C22.9141 18.0325 23.1992 17.5387 23.5706 17.113C24.0477 16.5661 24.715 16.1808 26.0496 15.4103L29.1483 13.6212Z" fill="#2A9B4B"/>
    <path d="M42.9079 21.5647C42.9079 20.2165 42.9075 19.4582 42.7501 18.8297L42.6726 18.5673C42.5125 18.0998 42.2746 17.6628 41.9688 17.2758L41.8332 17.1132C41.4754 16.703 41.0108 16.3834 40.2377 15.9243L39.3548 15.4102L36.2558 13.6211C35.0882 12.947 34.4313 12.5676 33.8083 12.3897L33.5411 12.3258C32.9869 12.2171 32.4166 12.217 31.8624 12.3258L31.5961 12.3897C30.9732 12.5676 30.3163 12.947 29.1487 13.6211L26.0497 15.4102C24.7152 16.1807 24.0483 16.5664 23.5713 17.1132L23.4357 17.2758C23.1299 17.6628 22.892 18.0997 22.7319 18.5673L22.6535 18.8297C22.496 19.4581 22.4966 20.2166 22.4966 21.5647V25.1429L22.5005 26.1653C22.5115 27.0643 22.5556 27.6263 22.7319 28.1412C22.9149 28.6757 23.1999 29.1697 23.5713 29.5954C24.0483 30.1422 24.7152 30.5279 26.0497 31.2983L29.1487 33.0875C30.483 33.8578 31.1504 34.2431 31.8624 34.3828C32.3474 34.478 32.8449 34.49 33.333 34.4186L33.5411 34.3828C34.0753 34.278 34.5847 34.0349 35.369 33.5948L36.2558 33.0875L39.3548 31.2983C40.6892 30.5279 41.3562 30.1422 41.8332 29.5954C42.2046 29.1697 42.4896 28.6757 42.6726 28.1412C42.9076 27.4547 42.9079 26.6839 42.9079 25.1429V21.5647ZM45.0271 25.1429C45.0271 26.5334 45.054 27.7282 44.6776 28.8277C44.4057 29.6218 43.9824 30.356 43.4307 30.9885C42.6667 31.8643 41.6181 32.4377 40.4139 33.133L37.3149 34.9221C36.1107 35.6173 35.09 36.2386 33.9497 36.4624C33.126 36.624 32.2785 36.624 31.4548 36.4624C30.3144 36.2387 29.2937 35.6173 28.0896 34.9221L24.9905 33.133C23.7863 32.4377 22.7378 31.8643 21.9738 30.9885C21.422 30.356 20.9988 29.6218 20.7269 28.8277C20.3505 27.7282 20.3774 26.5334 20.3774 25.1429V21.5647C20.3774 20.1744 20.3506 18.9802 20.7269 17.8809C20.9988 17.0868 21.4221 16.3526 21.9738 15.72C22.7378 14.8443 23.7863 14.2699 24.9905 13.5747L28.0896 11.7865C29.2938 11.0913 30.3144 10.4699 31.4548 10.2462C32.2785 10.0846 33.126 10.0846 33.9497 10.2462C35.0901 10.47 36.1107 11.0912 37.3149 11.7865L40.4139 13.5747C41.6182 14.2699 42.6667 14.8443 43.4307 15.72C43.9824 16.3526 44.4057 17.0869 44.6776 17.8809C45.0539 18.9802 45.0271 20.1745 45.0271 21.5647V25.1429Z" fill="white"/>
    <path d="M20.2552 32.4158C20.8343 32.0815 21.1238 31.9144 21.4328 31.8537C21.6733 31.8066 21.9206 31.8066 22.1611 31.8537C22.4701 31.9144 22.7596 32.0815 23.3387 32.4158L24.6831 33.192C25.2621 33.5263 25.5516 33.6935 25.7586 33.9307C25.9197 34.1154 26.0434 34.3297 26.1228 34.5615C26.2248 34.8594 26.2248 35.1937 26.2248 35.8623V37.4147C26.2248 38.0833 26.2248 38.4176 26.1228 38.7155C26.0434 38.9474 25.9197 39.1616 25.7586 39.3463C25.5516 39.5836 25.2621 39.7507 24.6831 40.085L23.3387 40.8612C22.7596 41.1955 22.4701 41.3627 22.1611 41.4233C21.9206 41.4705 21.6733 41.4705 21.4328 41.4233C21.1238 41.3627 20.8343 41.1955 20.2552 40.8612L18.9108 40.085C18.3318 39.7507 18.0423 39.5836 17.8353 39.3463C17.6742 39.1616 17.5505 38.9474 17.4711 38.7155C17.3691 38.4176 17.3691 38.0833 17.3691 37.4147V35.8623C17.3691 35.1937 17.3691 34.8594 17.4711 34.5615C17.5505 34.3297 17.6742 34.1154 17.8353 33.9307C18.0423 33.6935 18.3318 33.5263 18.9109 33.192L20.2552 32.4158Z" fill="#2A9B4B"/>
    <path d="M26.2257 35.8619C26.2257 35.1937 26.225 34.8595 26.1231 34.5617C26.0437 34.3298 25.9202 34.1152 25.7591 33.9305C25.5521 33.6933 25.2624 33.526 24.6835 33.1918L23.3397 32.4154C22.7607 32.0811 22.4705 31.9145 22.1615 31.8538C21.9211 31.8067 21.6739 31.8067 21.4334 31.8538C21.1246 31.9144 20.8349 32.0812 20.2562 32.4154L18.9114 33.1918L18.5281 33.4154C18.1929 33.6145 17.991 33.7526 17.8358 33.9305C17.6747 34.1152 17.5512 34.3298 17.4718 34.5617C17.3699 34.8595 17.3702 35.1937 17.3702 35.8619V37.4148L17.3711 37.8582C17.3759 38.248 17.3954 38.4917 17.4718 38.715C17.5512 38.9469 17.6747 39.1616 17.8358 39.3463C18.0428 39.5835 18.3324 39.7506 18.9114 40.0849L20.2562 40.8614C20.835 41.1955 21.1245 41.3623 21.4334 41.4229C21.6739 41.4701 21.9211 41.4701 22.1615 41.4229C22.3932 41.3774 22.6141 41.2721 22.9544 41.0812L23.3397 40.8614L24.6835 40.0849C25.1903 39.7923 25.4758 39.628 25.6778 39.4324L25.7591 39.3463C25.9202 39.1616 26.0437 38.9469 26.1231 38.715C26.1995 38.4917 26.219 38.248 26.2238 37.8582L26.2257 37.4148V35.8619ZM28.344 37.4148C28.344 37.9328 28.3713 38.6908 28.1281 39.4014C27.9598 39.893 27.698 40.3479 27.3565 40.7394C26.8627 41.3055 26.1923 41.6615 25.7436 41.9205L24.3989 42.696C23.9502 42.955 23.3071 43.3578 22.57 43.5025C22.0603 43.6025 21.5356 43.6024 21.0259 43.5025C20.2886 43.3578 19.6448 42.9551 19.1961 42.696L17.8523 41.9205C17.4037 41.6615 16.7333 41.3054 16.2394 40.7394C15.8978 40.3478 15.6351 39.8931 15.4668 39.4014C15.2236 38.6908 15.2509 37.9328 15.2509 37.4148V35.8619C15.2509 35.3439 15.2236 34.5859 15.4668 33.8753L15.5346 33.6923C15.7022 33.2708 15.9405 32.8799 16.2394 32.5373C16.7333 31.9714 17.4037 31.6162 17.8523 31.3572L19.1961 30.5807C19.6448 30.3217 20.2886 29.9189 21.0259 29.7743L21.2176 29.7414C21.6021 29.6852 21.9928 29.6852 22.3774 29.7414L22.57 29.7743L22.8411 29.8401C23.4644 30.0176 24.0062 30.354 24.3989 30.5807L25.7436 31.3572C26.1361 31.5838 26.6978 31.8844 27.1629 32.335L27.3565 32.5373L27.4804 32.6874C27.7215 32.9925 27.9167 33.331 28.0603 33.6923L28.1281 33.8753L28.2075 34.1435C28.3652 34.7717 28.344 35.4087 28.344 35.8619V37.4148Z" fill="white"/>
    <rect x="20.4629" y="35.3066" width="2.66348" height="2.66348" rx="1.33174" fill="white"/>
    <path d="M44.3656 28.7055C45.0796 28.2933 45.4366 28.0871 45.8176 28.0124C46.1142 27.9542 46.4193 27.9542 46.7158 28.0124C47.0968 28.0871 47.4538 28.2933 48.1679 28.7055L49.8257 29.6626C50.5397 30.0749 50.8967 30.281 51.152 30.5736C51.3506 30.8013 51.5032 31.0655 51.6011 31.3514C51.7268 31.7188 51.7268 32.131 51.7268 32.9555V34.8698C51.7268 35.6943 51.7268 36.1065 51.6011 36.4739C51.5032 36.7598 51.3506 37.024 51.152 37.2517C50.8967 37.5443 50.5397 37.7504 49.8257 38.1627L48.1679 39.1198C47.4538 39.5321 47.0968 39.7382 46.7158 39.8129C46.4193 39.8711 46.1142 39.8711 45.8176 39.8129C45.4366 39.7382 45.0796 39.5321 44.3656 39.1198L42.7078 38.1627C41.9937 37.7504 41.6367 37.5443 41.3815 37.2517C41.1828 37.024 41.0303 36.7598 40.9324 36.4739C40.8066 36.1065 40.8066 35.6943 40.8066 34.8698V32.9555C40.8066 32.131 40.8066 31.7188 40.9324 31.3514C41.0303 31.0655 41.1828 30.8013 41.3815 30.5736C41.6367 30.281 41.9937 30.0749 42.7078 29.6626L44.3656 28.7055Z" fill="#2A9B4B"/>
    <path d="M51.7303 32.9558C51.7303 32.2343 51.7303 31.8282 51.646 31.4919L51.6044 31.3516C51.5065 31.0656 51.3539 30.8009 51.1552 30.5732C50.9 30.2808 50.5426 30.0742 49.8289 29.6622L48.1714 28.7056C47.5464 28.3448 47.195 28.1415 46.8615 28.0463L46.7192 28.0124C46.4227 27.9543 46.1173 27.9543 45.8208 28.0124C45.44 28.0873 45.0832 28.2936 44.3695 28.7056L42.7111 29.6622C41.9971 30.0744 41.64 30.2806 41.3848 30.5732C41.1861 30.8009 41.0334 31.0656 40.9355 31.3516C40.8099 31.7188 40.8097 32.1315 40.8097 32.9558V34.8698L40.8126 35.4168C40.8185 35.8976 40.8412 36.1985 40.9355 36.474C41.0334 36.7598 41.1862 37.0237 41.3848 37.2514C41.64 37.5439 41.9972 37.7502 42.7111 38.1624L44.3695 39.1199C45.0831 39.5319 45.44 39.7383 45.8208 39.8131C46.0432 39.8567 46.2708 39.8678 46.4956 39.846L46.7192 39.8131C47.005 39.757 47.2773 39.6265 47.697 39.391L48.1714 39.1199L49.8289 38.1624C50.5429 37.7502 50.9 37.544 51.1552 37.2514C51.3042 37.0806 51.4277 36.8896 51.5212 36.6841L51.6044 36.474C51.6987 36.1985 51.7224 35.8976 51.7283 35.4168L51.7303 34.8698V32.9558ZM53.8495 35.4022C53.8446 35.9583 53.8098 36.5752 53.6094 37.1604C53.4226 37.7059 53.1317 38.21 52.7526 38.6445C52.2105 39.266 51.4726 39.661 50.889 39.998L49.2305 40.9545C48.647 41.2914 47.9368 41.7338 47.1278 41.8926C46.5618 42.0037 45.9791 42.0037 45.4132 41.8926C44.6039 41.7339 43.8931 41.2915 43.3094 40.9545L41.652 39.998C41.0683 39.661 40.3304 39.266 39.7883 38.6445C39.4092 38.21 39.1183 37.7059 38.9315 37.1604C38.7312 36.5752 38.6963 35.9583 38.6914 35.4022V32.4233C38.6963 31.8671 38.7311 31.2504 38.9315 30.6651L39.0061 30.4618C39.1921 29.994 39.4566 29.5602 39.7883 29.18C40.3304 28.5587 41.0684 28.1645 41.652 27.8275L43.3094 26.87C43.8931 26.5331 44.6039 26.0917 45.4132 25.9329C45.9792 25.8218 46.5618 25.8218 47.1278 25.9329C47.9367 26.0917 48.647 26.5331 49.2305 26.87L50.889 27.8275C51.3996 28.1223 52.0283 28.461 52.5406 28.9573L52.7526 29.18L52.8901 29.3465C53.2024 29.7417 53.4459 30.1876 53.6094 30.6651C53.8098 31.2504 53.8446 31.8671 53.8495 32.4233V35.4022Z" fill="white"/>
    <rect x="44.4531" y="32.0664" width="3.64937" height="3.64937" rx="1.82469" fill="white"/>
    <path d="M34.3371 22.0182C35.51 23.1465 36.9769 23.2171 38.5098 23.4952C36.9308 23.781 35.5292 23.8829 34.3371 25.0647C33.1171 26.2743 33.0023 27.6817 32.71 29.295C32.4171 27.6787 32.3 26.2752 31.0758 25.0647C29.8834 23.8856 28.4879 23.781 26.9102 23.4952C28.5275 23.2018 30.0117 23.1149 31.2163 21.8793C32.3602 20.7059 32.4302 19.2376 32.71 17.6953C33.0041 19.3207 33.0861 20.8148 34.3371 22.0182Z" fill="white"/>
    <g filter="url(#filter0_di_11259_231619)">
        <path d="M68.2962 31.5858C67.7659 31.5858 67.3792 31.4753 67.1361 31.2543C66.9152 31.0113 66.8047 30.6467 66.8047 30.1605V10.5053C66.8047 10.0191 66.9152 9.65454 67.1361 9.41147C67.3792 9.16841 67.7659 9.04688 68.2962 9.04688H76.682C82.2947 9.04688 85.101 11.4996 85.101 16.4052C85.101 17.9741 84.7695 19.3109 84.1066 20.4158C83.4437 21.4985 82.4604 22.3272 81.1567 22.9017L84.637 30.5251C84.7032 30.6798 84.7364 30.8345 84.7364 30.9892C84.7364 31.3869 84.5044 31.5858 84.0403 31.5858H80.3612C80.0518 31.5858 79.8198 31.5526 79.6651 31.4864C79.5104 31.398 79.3779 31.2212 79.2674 30.956L76.218 23.664H72.2737V30.1605C72.2737 30.6467 72.1632 31.0113 71.9422 31.2543C71.7213 31.4753 71.3346 31.5858 70.7821 31.5858H68.2962ZM75.8865 19.7197C77.1461 19.7197 78.0852 19.4546 78.7039 18.9242C79.3447 18.3939 79.6651 17.5542 79.6651 16.4052C79.6651 15.2561 79.3779 14.4164 78.8033 13.8861C78.2288 13.3558 77.367 13.0906 76.218 13.0906H72.2737V19.7197H75.8865Z" fill="#2A9B4B"/>
        <path d="M90.3116 31.5858C89.7812 31.5858 89.3945 31.4753 89.1515 31.2543C88.9305 31.0113 88.82 30.6467 88.82 30.1605V10.5053C88.82 10.0191 88.9305 9.65454 89.1515 9.41147C89.3945 9.16841 89.7812 9.04688 90.3116 9.04688H100.023C102.454 9.04688 104.277 9.61035 105.492 10.7373C106.708 11.8421 107.315 13.3779 107.315 15.3445C107.315 16.3831 107.061 17.3111 106.553 18.1287C106.067 18.9463 105.393 19.5319 104.531 19.8854C106.807 20.6367 107.945 22.3051 107.945 24.8904C107.945 26.1499 107.647 27.2879 107.05 28.3044C106.476 29.3209 105.592 30.1274 104.398 30.724C103.227 31.2985 101.769 31.5858 100.023 31.5858H90.3116ZM99.0951 18.1619C99.979 18.1619 100.664 17.9409 101.15 17.499C101.636 17.057 101.879 16.4162 101.879 15.5765C101.879 14.6706 101.647 14.0297 101.183 13.6541C100.741 13.2564 100.045 13.0575 99.0951 13.0575H94.289V18.1619H99.0951ZM99.6254 27.5752C100.598 27.5752 101.316 27.3211 101.78 26.8128C102.266 26.2825 102.509 25.5975 102.509 24.7578C102.509 23.8077 102.233 23.1006 101.68 22.6365C101.128 22.1504 100.355 21.9073 99.3603 21.9073H94.289V27.5752H99.6254Z" fill="#2A9B4B"/>
    </g>
    <g filter="url(#filter1_di_11259_231619)">
        <path d="M114.525 9.04102C114.769 9.04102 115.011 9.07347 115.209 9.17513L115.211 9.17219C115.217 9.17504 115.222 9.17955 115.228 9.1825C115.229 9.18319 115.231 9.18329 115.232 9.18398L115.231 9.18545C115.431 9.28498 115.596 9.43932 115.725 9.63497L119.662 15.3888L123.605 9.62318L123.614 9.61286C123.754 9.4346 123.912 9.28269 124.092 9.18398C124.294 9.07317 124.545 9.04102 124.798 9.04102H128.426C128.657 9.04107 128.906 9.11033 129.088 9.32694C129.273 9.50425 129.361 9.74389 129.361 10.002C129.361 10.2874 129.264 10.5552 129.118 10.7949L129.105 10.8155L122.817 20.0255L129.51 29.8118L129.524 29.8324C129.662 30.0601 129.767 30.3186 129.767 30.5929C129.767 30.8654 129.686 31.1245 129.501 31.3269L129.485 31.3446L129.467 31.3593C129.273 31.5298 129.034 31.5862 128.803 31.5863H125.204C124.96 31.5863 124.732 31.5653 124.551 31.4993L124.524 31.489L124.497 31.4743C124.31 31.3712 124.158 31.2113 124.034 31.0233L119.663 24.6622L115.32 31.0233L115.318 31.0218C115.194 31.2103 115.043 31.3711 114.855 31.4743L114.829 31.489L114.801 31.4993C114.62 31.5653 114.392 31.5863 114.148 31.5863H110.52C110.29 31.5862 110.051 31.5299 109.856 31.3593L109.839 31.3446L109.823 31.3269C109.638 31.1245 109.557 30.8654 109.557 30.5929C109.557 30.291 109.651 30.0166 109.829 29.7882L116.505 20.0255L110.247 10.814C110.085 10.5756 109.992 10.3008 109.992 10.002C109.992 9.76389 110.057 9.5216 110.229 9.33284L110.304 9.25914C110.485 9.10149 110.707 9.04102 110.927 9.04102H114.525Z" fill="#2A9B4B"/>
    </g>
    <g filter="url(#filter2_i_11259_231619)">
        <path d="M78.336 37.873C78.7435 37.873 79.1264 37.9822 79.418 38.2585L79.4242 38.2631C79.4308 38.2694 79.4378 38.2752 79.4443 38.2817C79.7535 38.5639 79.8731 38.9553 79.8731 39.3715C79.873 39.7946 79.7419 40.1806 79.4443 40.4783C79.1497 40.7729 78.7555 40.8885 78.336 40.8885H75.0496V50.8311C75.0495 51.3116 74.9239 51.7501 74.6208 52.0912L74.6115 52.102C74.2865 52.4471 73.8314 52.5788 73.3391 52.5788C72.8529 52.5787 72.4089 52.444 72.0775 52.1129C72.0709 52.1063 72.0651 52.0982 72.0589 52.0912C71.7558 51.7501 71.6302 51.3117 71.6301 50.8311V40.8885H68.3422C67.9213 40.8884 67.5302 40.7728 67.2277 40.4907C67.2198 40.4833 67.2118 40.4753 67.2045 40.4675C66.9252 40.1683 66.8068 39.7855 66.8066 39.3715C66.8066 38.9544 66.9197 38.5554 67.2277 38.2693C67.5301 37.9875 67.9215 37.8732 68.3422 37.873H78.336ZM88.8328 37.873C90.3969 37.873 91.6768 38.2505 92.6021 39.0727C93.5349 39.888 93.9782 41.0263 93.9782 42.4194C93.9782 43.3276 93.775 44.1378 93.3482 44.8296L93.3467 44.8281C92.938 45.5114 92.3453 46.0301 91.5866 46.3869C91.9306 46.6841 92.2248 47.0723 92.4736 47.5371L93.921 50.2181C94.1077 50.548 94.2069 50.898 94.1888 51.2599C94.1699 51.6342 94.0246 51.9654 93.7491 52.2212L93.7352 52.2336C93.4368 52.4894 93.0438 52.5787 92.6346 52.5788C92.2255 52.5788 91.8436 52.4962 91.5263 52.2909L91.5108 52.28C91.2904 52.1245 91.1023 51.9196 90.9411 51.6779L90.7879 51.424L88.8405 47.8358L88.8374 47.8312C88.6361 47.4509 88.4271 47.2602 88.2368 47.1764C88.2297 47.1732 88.2221 47.169 88.2151 47.1655C87.9941 47.0552 87.6755 46.9844 87.2322 46.9844H85.8746V50.8311C85.8745 51.3116 85.7489 51.7501 85.4458 52.0912L85.4365 52.102C85.1115 52.4472 84.6564 52.5788 84.1641 52.5788C83.6778 52.5787 83.2339 52.444 82.9025 52.1129C82.8959 52.1063 82.8901 52.0982 82.8839 52.0912C82.5807 51.7501 82.4552 51.3117 82.4551 50.8311V39.6021C82.4551 39.1131 82.5841 38.6605 82.9242 38.3359C83.2554 38.0067 83.6991 37.873 84.1842 37.873H88.8328ZM106.478 37.873C106.873 37.8732 107.249 37.9762 107.532 38.2508C107.833 38.5298 107.956 38.908 107.956 39.3127C107.956 39.7254 107.837 40.1097 107.546 40.4009C107.262 40.6854 106.879 40.7908 106.478 40.791H101.127V43.5835H106.052C106.46 43.5835 106.854 43.6858 107.142 43.9736C107.427 44.2582 107.532 44.6423 107.532 45.0433C107.532 45.4442 107.427 45.8284 107.142 46.1129C106.854 46.4007 106.46 46.503 106.052 46.503H101.127V49.5061H106.478C106.873 49.5062 107.249 49.6094 107.532 49.8838C107.837 50.1665 107.956 50.555 107.956 50.9658C107.956 51.3766 107.838 51.7652 107.534 52.0479L107.532 52.0463C107.249 52.3211 106.873 52.4254 106.478 52.4256H99.5896C99.0855 52.4255 98.6258 52.2937 98.2801 51.9674C98.2736 51.9612 98.2661 51.9553 98.2599 51.9488C97.9333 51.6029 97.8017 51.1421 97.8017 50.6376V39.6594C97.8019 39.1573 97.9327 38.6958 98.2692 38.3591C98.6141 38.0143 99.0782 37.8731 99.5896 37.873H106.478ZM120.111 37.873C120.506 37.8731 120.884 37.9757 121.167 38.2508C121.467 38.5298 121.589 38.9082 121.589 39.3127C121.589 39.7252 121.472 40.1098 121.181 40.4009C120.896 40.6855 120.512 40.791 120.111 40.791H114.76V43.5835H119.687C120.095 43.5836 120.487 43.6859 120.775 43.9736C121.06 44.2583 121.165 44.6422 121.165 45.0433C121.165 45.4442 121.06 45.8284 120.775 46.1129C120.488 46.4004 120.094 46.5029 119.687 46.503H114.76V49.5061H120.111C120.506 49.5061 120.884 49.6089 121.167 49.8838C121.471 50.1665 121.589 50.555 121.589 50.9658C121.589 51.3766 121.473 51.7652 121.168 52.0479L121.167 52.0463C120.884 52.3216 120.506 52.4255 120.111 52.4256H113.224C112.72 52.4256 112.259 52.294 111.913 51.9674C111.907 51.9613 111.901 51.9551 111.895 51.9488C111.568 51.6029 111.436 51.1421 111.436 50.6376V39.6594C111.436 39.1572 111.567 38.6958 111.904 38.3591C112.249 38.0144 112.713 37.873 113.224 37.873H120.111ZM85.8746 44.2012H88.4086C89.2433 44.2012 89.7882 44.0294 90.1191 43.7646C90.4432 43.5027 90.6346 43.1017 90.6346 42.4767C90.6346 41.8665 90.4443 41.4816 90.1238 41.2322L90.1114 41.2229C89.781 40.9492 89.2401 40.7724 88.4086 40.7724H85.8746V44.2012Z" fill="#816057"/>
    </g>
    <defs>
        <filter id="filter0_di_11259_231619" x="66.8047" y="7.99006" width="42.7125" height="25.1678" filterUnits="userSpaceOnUse" color-interpolation-filters="sRGB">
            <feFlood flood-opacity="0" result="BackgroundImageFix"/>
            <feColorMatrix in="SourceAlpha" type="matrix" values="0 0 0 0 0 0 0 0 0 0 0 0 0 0 0 0 0 0 127 0" result="hardAlpha"/>
            <feOffset dx="1.57189" dy="1.57189"/>
            <feComposite in2="hardAlpha" operator="out"/>
            <feColorMatrix type="matrix" values="0 0 0 0 0.847059 0 0 0 0 0.909804 0 0 0 0 0.866667 0 0 0 1 0"/>
            <feBlend mode="normal" in2="BackgroundImageFix" result="effect1_dropShadow_11259_231619"/>
            <feBlend mode="normal" in="SourceGraphic" in2="effect1_dropShadow_11259_231619" result="shape"/>
            <feColorMatrix in="SourceAlpha" type="matrix" values="0 0 0 0 0 0 0 0 0 0 0 0 0 0 0 0 0 0 127 0" result="hardAlpha"/>
            <feOffset dy="-1.47955"/>
            <feGaussianBlur stdDeviation="0.52841"/>
            <feComposite in2="hardAlpha" operator="arithmetic" k2="-1" k3="1"/>
            <feColorMatrix type="matrix" values="0 0 0 0 0 0 0 0 0 0 0 0 0 0 0 0 0 0 0.12 0"/>
            <feBlend mode="normal" in2="shape" result="effect2_innerShadow_11259_231619"/>
        </filter>
        <filter id="filter1_di_11259_231619" x="109.557" y="7.9842" width="21.7828" height="25.1736" filterUnits="userSpaceOnUse" color-interpolation-filters="sRGB">
            <feFlood flood-opacity="0" result="BackgroundImageFix"/>
            <feColorMatrix in="SourceAlpha" type="matrix" values="0 0 0 0 0 0 0 0 0 0 0 0 0 0 0 0 0 0 127 0" result="hardAlpha"/>
            <feOffset dx="1.57189" dy="1.57189"/>
            <feComposite in2="hardAlpha" operator="out"/>
            <feColorMatrix type="matrix" values="0 0 0 0 0.847059 0 0 0 0 0.909804 0 0 0 0 0.866667 0 0 0 1 0"/>
            <feBlend mode="normal" in2="BackgroundImageFix" result="effect1_dropShadow_11259_231619"/>
            <feBlend mode="normal" in="SourceGraphic" in2="effect1_dropShadow_11259_231619" result="shape"/>
            <feColorMatrix in="SourceAlpha" type="matrix" values="0 0 0 0 0 0 0 0 0 0 0 0 0 0 0 0 0 0 127 0" result="hardAlpha"/>
            <feOffset dy="-1.47955"/>
            <feGaussianBlur stdDeviation="0.52841"/>
            <feComposite in2="hardAlpha" operator="arithmetic" k2="-1" k3="1"/>
            <feColorMatrix type="matrix" values="0 0 0 0 0 0 0 0 0 0 0 0 0 0 0 0 0 0 0.12 0"/>
            <feBlend mode="normal" in2="shape" result="effect2_innerShadow_11259_231619"/>
        </filter>
        <filter id="filter2_i_11259_231619" x="66.8066" y="37.4015" width="55.2548" height="15.1766" filterUnits="userSpaceOnUse" color-interpolation-filters="sRGB">
            <feFlood flood-opacity="0" result="BackgroundImageFix"/>
            <feBlend mode="normal" in="SourceGraphic" in2="BackgroundImageFix" result="shape"/>
            <feColorMatrix in="SourceAlpha" type="matrix" values="0 0 0 0 0 0 0 0 0 0 0 0 0 0 0 0 0 0 127 0" result="hardAlpha"/>
            <feOffset dx="0.471567" dy="-0.471567"/>
            <feGaussianBlur stdDeviation="0.392973"/>
            <feComposite in2="hardAlpha" operator="arithmetic" k2="-1" k3="1"/>
            <feColorMatrix type="matrix" values="0 0 0 0 0 0 0 0 0 0 0 0 0 0 0 0 0 0 0.15 0"/>
            <feBlend mode="normal" in2="shape" result="effect1_innerShadow_11259_231619"/>
        </filter>
    </defs>
</svg>
